Coordinates
version=1
nRows=32
nColumns=12
inDegrees=yes

Units are S.I. units (second, meters, Newtons, ...)
Angles are in degrees

endheader
time	SC_y	SC_z	SC_x	AC_y	AC_z	AC_x	GH_y	GH_z	GH_yy	EL_x	PS_y
       0.0              -38.77          32.02           74.2          33.72         -1.156          14.85          74.06          27.81         -99.85          124.1          52.53
   0.02994              -38.77          32.02           74.2          33.72         -1.155          14.84          74.05          27.82         -99.84          124.1          52.54
   0.05988              -38.77          32.02           74.2          33.73         -1.154          14.84          74.03          27.82         -99.83          124.1          52.56
   0.08982              -38.77          32.02          74.19          33.73         -1.153          14.84          74.02          27.83         -99.82          124.1          52.57
    0.1198              -38.77          32.02          74.19          33.73         -1.153          14.83           74.0          27.84         -99.81          124.1          52.58
    0.1497              -38.77          32.02          74.18          33.74         -1.152          14.83          73.98          27.84          -99.8          124.1           52.6
    0.1796              -38.78          32.02          74.18          33.74         -1.151          14.82          73.96          27.85         -99.79          124.1          52.61
    0.2096              -38.78          32.02          74.17          33.75          -1.15          14.82          73.94          27.86         -99.77          124.1          52.63
    0.2395              -38.78          32.02          74.16          33.75         -1.149          14.81          73.91          27.86         -99.76          124.1          52.65
    0.2695              -38.78          32.02          74.16          33.76         -1.148          14.81          73.89          27.87         -99.75          124.1          52.67
    0.2994              -38.78          32.02          74.15          33.77         -1.146           14.8          73.86          27.88         -99.73          124.1          52.69
    0.3293              -38.79          32.02          74.14          33.77         -1.145          14.79          73.83          27.89         -99.71          124.1          52.71
    0.3593              -38.79          32.02          74.14          33.78         -1.144          14.79           73.8           27.9          -99.7          124.1          52.74
    0.3892              -38.79          32.02          74.13          33.79         -1.142          14.78          73.76          27.91         -99.68          124.1          52.76
    0.4192              -38.79          32.02          74.12           33.8          -1.14          14.77          73.73          27.93         -99.66          124.1          52.79
    0.4491               -38.8          32.02          74.11          33.81         -1.139          14.76          73.69          27.94         -99.63          124.1          52.82
     0.479               -38.8          32.02           74.1          33.82         -1.137          14.75          73.64          27.95         -99.61          124.1          52.86
     0.509               -38.8          32.02          74.08          33.83         -1.135          14.74           73.6          27.97         -99.58          124.1          52.89
    0.5389              -38.81          32.02          74.07          33.84         -1.132          14.73          73.54          27.99         -99.55          124.1          52.93
    0.5688              -38.81          32.02          74.06          33.86          -1.13          14.71          73.49          28.01         -99.52          124.1          52.98
    0.5988              -38.81          32.02          74.04          33.87         -1.127           14.7          73.42          28.03         -99.49          124.1          53.03
    0.6287              -38.82          32.02          74.02          33.89         -1.124          14.68          73.35          28.05         -99.45          124.1          53.08
    0.6587              -38.83          32.01           74.0           33.9          -1.12          14.67          73.28          28.07          -99.4          124.1          53.14
    0.6886              -38.83          32.01          73.98          33.92         -1.117          14.65          73.19           28.1         -99.36          124.1           53.2
    0.7185              -38.84          32.01          73.96          33.95         -1.113          14.63           73.1          28.13          -99.3          124.1          53.27
    0.7485              -38.85          32.01          73.93          33.97         -1.108           14.6           73.0          28.17         -99.24          124.1          53.35
    0.7784              -38.85          32.01           73.9           34.0         -1.103          14.58          72.88          28.21         -99.18          124.1          53.44
    0.8084              -38.86          32.01          73.87          34.03         -1.097          14.55          72.75          28.25          -99.1          124.1          53.55
    0.8383              -38.88          32.01          73.83          34.07          -1.09          14.51           72.6           28.3         -99.02          124.1          53.66
    0.8682              -38.89          32.01          73.79          34.11         -1.083          14.47          72.43          28.36         -98.92          124.1          53.79
    0.8982               -38.9          32.01          73.74          34.15         -1.074          14.43          72.24          28.42         -98.81          124.1          53.94
    0.9281              -38.92          32.01          73.69           34.2         -1.064          14.38          72.02          28.49         -98.69          124.1          54.11
